# xmcd
#
# Track frame offsets: 
#        150
#        10988
#        35324
#        51561
#        72099
#        93964
#        115210
#        132421
#        150744
#        165561
#        190606
#        212002
#        223678
#        240550
#        248596
#
# Disc length: 3490 seconds
#
# Revision: 1
# Processed by: cddbd v1.5.1PL0 Copyright (c) Steve Scherf et al.
# Submitted via: ExactAudioCopy v0.95a5
#
DISCID=c90da00f
DTITLE=雷恩•寇伯Ron Korb - 東方戀Behind the Mask
DYEAR=1900
DGENRE=Folk
TTITLE0=家園FIELDS OF HOME
TTITLE1=黑色眼瞳DARK EYES
TTITLE2=面具背後BEHIND THE MASK
TTITLE3=冒險者CARAVAN
TTITLE4=信心FAITH
TTITLE5=海市蜃樓MIRAGE
TTITLE6=黑暗之舞SHADOW DANCE
TTITLE7=沙漠夜行DESERT NIGHT
TTITLE8=望夫THE LONGING
TTITLE9=黃金袍GOLDEN ROBES
TTITLE10=歸鄉JOURNEY HOME
TTITLE11=風中微聲VOICES IN THE SKY
TTITLE12=皮影戲SHADOW PUPPETS
TTITLE13=SHADOW DANCE REPRISE
TTITLE14=FIELDS OF HOME REPRISE
EXTD=
EXTT0=
EXTT1=
EXTT2=
EXTT3=
EXTT4=
EXTT5=
EXTT6=
EXTT7=
EXTT8=
EXTT9=
EXTT10=
EXTT11=
EXTT12=
EXTT13=
EXTT14=
PLAYORDER=
